<?xml version="1.0" encoding="UTF-8"?>
<svg width="85px" height="85px" viewBox="0 0 85 85" version="1.1" xmlns="http://www.w3.org/2000/svg" xmlns:xlink="http://www.w3.org/1999/xlink">
    <!-- Generator: Sketch 49.3 (51167) - http://www.bohemiancoding.com/sketch -->
    <title>Facebook</title>
    <desc>Created with Sketch.</desc>
    <defs></defs>
    <g id="Page-1" stroke="none" stroke-width="1" fill="none" fill-rule="evenodd">
        <g id="Blue" fill="#3138B0" fill-rule="nonzero">
            <g id="Facebook">
                <path d="M50.689,36.141 L50.257,41.89 L44.652,41.89 L44.652,61.147 L37.275,61.147 L37.275,41.89 L33.541,41.89 L33.541,36.141 L37.275,36.141 L37.275,31.83 L37.275,30.585 C37.275,30.585 37.011,24.221 44.652,23.877 C48.366,23.711 51.459,24.548 51.459,24.548 L50.674,30.2 C50.674,30.2 44.653,28.334 44.653,31.971 L44.653,36.14 L50.689,36.141 Z" id="Shape"></path>
                <path d="M42.499,84.275 C19.466,84.275 0.725,65.534 0.725,42.499 C0.725,19.464 19.466,0.725 42.499,0.725 C65.534,0.725 84.275,19.464 84.275,42.499 C84.275,65.534 65.534,84.275 42.499,84.275 Z M42.499,6.464 C22.629,6.464 6.464,22.629 6.464,42.499 C6.464,62.369 22.629,78.535 42.499,78.535 C62.371,78.535 78.535,62.369 78.535,42.499 C78.535,22.629 62.371,6.464 42.499,6.464 Z" id="Shape"></path>
            </g>
        </g>
    </g>
</svg>