<?xml version="1.0" encoding="UTF-8"?>
<svg width="1025px" height="191px" viewBox="0 0 1025 191" version="1.1" xmlns="http://www.w3.org/2000/svg" xmlns:xlink="http://www.w3.org/1999/xlink">
    <!-- Generator: Sketch 49.3 (51167) - http://www.bohemiancoding.com/sketch -->
    <title>import-io-logo-HEX3138b0</title>
    <desc>Created with Sketch.</desc>
    <defs></defs>
    <g id="Page-1" stroke="none" stroke-width="1" fill="none" fill-rule="evenodd">
        <g id="import-io-logo-HEX3138b0" fill="#3138B0" fill-rule="nonzero">
            <rect id="Rectangle-path" x="0" y="0" width="30" height="30"></rect>
            <rect id="Rectangle-path" x="0" y="45" width="30" height="105"></rect>
            <rect id="Rectangle-path" x="853.67" y="0" width="30" height="30"></rect>
            <rect id="Rectangle-path" x="853.67" y="45" width="30" height="105"></rect>
            <polygon id="Shape" points="70 150 100 150 100 73 134 73 134 150 164 150 164 73 198 73 198 150 228 150 228 45 70 45"></polygon>
            <polygon id="Shape" points="546.45 150 576.45 150 576.45 73 606.45 73 606.45 45 546.45 45"></polygon>
            <polygon id="Shape" points="688.53 15 658.53 15 658.53 45 640.75 45 640.75 73 658.53 73 658.53 150 718.53 150 718.53 120 688.53 120 688.53 73 718.53 73 718.53 45 688.53 45"></polygon>
            <circle id="Oval" cx="785.24" cy="130.6" r="18.62"></circle>
            <path d="M326.37,43.01 C315.8,43.01 305.98,46.44 297.83,52.31 L297.83,45 L267.83,45 L267.83,191 L297.83,191 L297.83,143.33 C305.99,149.2 315.8,152.63 326.37,152.63 C354.65,152.63 377.57,128.09 377.57,97.82 C377.57,67.55 354.65,43.01 326.37,43.01 Z M321.71,125.76 C308.52,125.76 297.83,113.38 297.83,98.11 C297.83,82.84 308.52,70.46 321.71,70.46 C334.9,70.46 345.59,82.84 345.59,98.11 C345.59,113.38 334.9,125.76 321.71,125.76 Z" id="Shape"></path>
            <path d="M461.79,39.69 C431.39,39.69 406.75,64.13 406.75,94.28 C406.75,124.43 431.39,148.87 461.79,148.87 C492.19,148.87 516.83,124.43 516.83,94.28 C516.83,64.13 492.19,39.69 461.79,39.69 Z M461.63,121.17 C448.24,121.17 437.39,109.27 437.39,94.58 C437.39,79.9 448.24,67.99 461.63,67.99 C475.02,67.99 485.87,79.89 485.87,94.58 C485.87,109.26 475.02,121.17 461.63,121.17 Z" id="Shape"></path>
            <path d="M969.09,39.69 C938.69,39.69 914.05,64.13 914.05,94.28 C914.05,124.43 938.69,148.87 969.09,148.87 C999.49,148.87 1024.13,124.43 1024.13,94.28 C1024.13,64.13 999.49,39.69 969.09,39.69 Z M968.92,121.17 C955.53,121.17 944.68,109.27 944.68,94.58 C944.68,79.9 955.53,67.99 968.92,67.99 C982.31,67.99 993.16,79.89 993.16,94.58 C993.16,109.26 982.31,121.17 968.92,121.17 Z" id="Shape"></path>
        </g>
    </g>
</svg>