<?xml version="1.0" encoding="UTF-8"?>
<svg width="85px" height="85px" viewBox="0 0 85 85" version="1.1" xmlns="http://www.w3.org/2000/svg" xmlns:xlink="http://www.w3.org/1999/xlink">
    <!-- Generator: Sketch 49.3 (51167) - http://www.bohemiancoding.com/sketch -->
    <title>LinkedIn</title>
    <desc>Created with Sketch.</desc>
    <defs></defs>
    <g id="Page-1" stroke="none" stroke-width="1" fill="none" fill-rule="evenodd">
        <g id="Blue" transform="translate(-250.000000, 0.000000)" fill="#3138B0" fill-rule="nonzero">
            <g id="LinkedIn" transform="translate(250.000000, 0.000000)">
                <path d="M42.499,0.725 C19.464,0.725 0.725,19.465 0.725,42.499 C0.725,65.534 19.464,84.275 42.499,84.275 C65.534,84.275 84.275,65.534 84.275,42.499 C84.275,19.465 65.534,0.725 42.499,0.725 Z M42.499,78.536 C22.629,78.536 6.465,62.37 6.465,42.499 C6.465,22.629 22.629,6.465 42.499,6.465 C62.37,6.465 78.536,22.629 78.536,42.499 C78.536,62.37 62.37,78.536 42.499,78.536 Z" id="Shape"></path>
                <rect id="Rectangle-path" x="27.096" y="36.354" width="6.748" height="21.711"></rect>
                <path d="M30.514,26.938 C28.334,26.938 26.917,28.405 26.917,30.313 C26.917,32.178 28.293,33.688 30.425,33.688 C32.688,33.688 34.065,32.178 34.065,30.313 C34.02,28.402 32.688,26.938 30.514,26.938 Z" id="Shape"></path>
                <path d="M50.311,35.861 C46.674,35.861 44.499,37.949 43.608,39.367 L43.473,39.367 L43.162,36.351 L37.305,36.351 C37.391,38.302 37.481,40.57 37.481,43.277 L37.481,58.062 L44.231,58.062 L44.231,45.541 C44.231,44.92 44.274,44.298 44.454,43.853 C44.94,42.611 46.051,41.324 47.916,41.324 C50.358,41.324 51.337,43.234 51.337,46.032 L51.337,58.062 L58.085,58.062 L58.085,45.232 C58.083,38.838 54.755,35.861 50.311,35.861 Z" id="Shape"></path>
            </g>
        </g>
    </g>
</svg>