<?xml version="1.0" encoding="UTF-8"?>
<svg width="85px" height="85px" viewBox="0 0 85 85" version="1.1" xmlns="http://www.w3.org/2000/svg" xmlns:xlink="http://www.w3.org/1999/xlink">
    <!-- Generator: Sketch 49.3 (51167) - http://www.bohemiancoding.com/sketch -->
    <title>Twitter</title>
    <desc>Created with Sketch.</desc>
    <defs></defs>
    <g id="Page-1" stroke="none" stroke-width="1" fill="none" fill-rule="evenodd">
        <g id="Blue" transform="translate(-125.000000, 0.000000)" fill="#3138B0" fill-rule="nonzero">
            <g id="Twitter" transform="translate(125.000000, 0.000000)">
                <path d="M60.05,29.124 C58.641,29.957 57.084,30.563 55.425,30.892 C54.096,29.478 52.201,28.592 50.112,28.592 C46.09,28.592 42.831,31.851 42.831,35.873 C42.831,36.442 42.893,37 43.019,37.529 C36.968,37.228 31.603,34.33 28.01,29.924 C27.382,31 27.025,32.252 27.025,33.586 C27.025,36.109 28.31,38.34 30.265,39.646 C29.07,39.609 27.95,39.28 26.967,38.734 C26.965,38.764 26.965,38.796 26.965,38.829 C26.965,42.354 29.474,45.3 32.808,45.967 C32.195,46.135 31.553,46.226 30.888,46.226 C30.42,46.226 29.964,46.178 29.521,46.094 C30.447,48.986 33.133,51.091 36.32,51.15 C33.83,53.103 30.691,54.267 27.277,54.267 C26.689,54.267 26.111,54.234 25.541,54.164 C28.764,56.229 32.592,57.436 36.704,57.436 C50.098,57.436 57.421,46.339 57.421,36.718 C57.421,36.403 57.413,36.088 57.4,35.775 C58.822,34.75 60.056,33.467 61.031,32.007 C59.726,32.585 58.322,32.975 56.849,33.151 C58.352,32.252 59.506,30.821 60.05,29.124 Z" id="Shape"></path>
                <path d="M42.5,0.725 C19.465,0.725 0.725,19.464 0.725,42.499 C0.725,65.534 19.465,84.275 42.5,84.275 C65.535,84.275 84.275,65.534 84.275,42.499 C84.275,19.464 65.535,0.725 42.5,0.725 Z M42.5,78.535 C22.63,78.535 6.464,62.369 6.464,42.499 C6.464,22.629 22.63,6.464 42.5,6.464 C62.37,6.464 78.536,22.629 78.536,42.499 C78.536,62.369 62.37,78.535 42.5,78.535 Z" id="Shape"></path>
            </g>
        </g>
    </g>
</svg>