<?xml version="1.0" encoding="UTF-8"?>
<svg width="85px" height="85px" viewBox="0 0 85 85" version="1.1" xmlns="http://www.w3.org/2000/svg" xmlns:xlink="http://www.w3.org/1999/xlink">
    <!-- Generator: Sketch 49.3 (51167) - http://www.bohemiancoding.com/sketch -->
    <title>YouTube</title>
    <desc>Created with Sketch.</desc>
    <defs></defs>
    <g id="Page-1" stroke="none" stroke-width="1" fill="none" fill-rule="evenodd">
        <g id="Blue" transform="translate(-375.000000, 0.000000)" fill="#3138B0" fill-rule="nonzero">
            <g id="YouTube" transform="translate(375.000000, 0.000000)">
                <path d="M55.877,30.346 C47.227,29.668 37.773,29.668 29.127,30.346 C26.422,30.676 24.383,32.496 23.861,35.174 C23.248,39.852 23.248,45.149 23.859,49.826 C24.381,52.504 26.421,54.323 29.127,54.654 C37.773,55.333 47.227,55.332 55.877,54.654 C58.578,54.32 60.615,52.507 61.141,49.826 C61.75,45.146 61.75,39.852 61.141,35.174 C60.615,32.494 58.578,30.68 55.877,30.346 Z M37.916,47.65 L37.916,37.35 L47.084,42.5 L37.916,47.65 Z" id="Shape"></path>
                <path d="M42.5,0.725 C19.465,0.725 0.725,19.465 0.725,42.499 C0.725,65.534 19.465,84.275 42.5,84.275 C65.535,84.275 84.275,65.534 84.275,42.499 C84.275,19.465 65.535,0.725 42.5,0.725 Z M42.5,78.535 C22.629,78.535 6.465,62.369 6.465,42.499 C6.465,22.629 22.629,6.465 42.5,6.465 C62.369,6.465 78.535,22.629 78.535,42.499 C78.535,62.369 62.369,78.535 42.5,78.535 Z" id="Shape"></path>
            </g>
        </g>
    </g>
</svg>